<?xml version="1.0" encoding="UTF-8" standalone="no"?><svg xmlns="http://www.w3.org/2000/svg" xmlns:xlink="http://www.w3.org/1999/xlink" contentScriptType="application/ecmascript" contentStyleType="text/css" height="303px" preserveAspectRatio="none" style="width:585px;height:303px;" version="1.1" viewBox="0 0 585 303" width="585px" zoomAndPan="magnify"><defs><filter height="300%" id="fhjme5tkt30xw" width="300%" x="-1" y="-1"><feGaussianBlur result="blurOut" stdDeviation="2.0"/><feColorMatrix in="blurOut" result="blurOut2" type="matrix" values="0 0 0 0 0 0 0 0 0 0 0 0 0 0 0 0 0 0 .4 0"/><feOffset dx="4.0" dy="4.0" in="blurOut2" result="blurOut3"/><feBlend in="SourceGraphic" in2="blurOut3" mode="normal"/></filter></defs><g><!--MD5=[16baea6be49bb9991e615d76903392b3]
class Authorization--><rect fill="#FEFECE" filter="url(#fhjme5tkt30xw)" height="150.4375" id="Authorization" style="stroke: #A80036; stroke-width: 1.5;" width="135" x="6" y="129"/><ellipse cx="30.45" cy="145" fill="#ADD1B2" rx="11" ry="11" style="stroke: #A80036; stroke-width: 1.0;"/><path d="M32.7938,140.6719 L32.9656,140.75 C33.1844,140.4375 33.3875,140.3438 33.6844,140.3438 C33.9813,140.3438 34.2625,140.4844 34.4188,140.75 C34.5125,140.9063 34.5281,141.0313 34.5281,141.4688 L34.5281,142.8906 C34.5281,143.3125 34.4969,143.5 34.3875,143.6563 C34.2156,143.875 33.95,144.0156 33.6844,144.0156 C33.4656,144.0156 33.2313,143.9063 33.0906,143.7656 C32.95,143.6406 32.9188,143.5156 32.8563,143.1094 C32.7625,142.7031 32.5906,142.4844 32.1063,142.2031 C31.6375,141.9531 31.0281,141.7969 30.45,141.7969 C28.7156,141.7969 27.4656,143.1094 27.4656,144.8906 L27.4656,145.9844 C27.4656,147.6875 28.7625,148.7813 30.8094,148.7813 C31.575,148.7813 32.2625,148.6563 32.6844,148.3906 C32.8719,148.2969 32.8719,148.2969 33.325,147.8125 C33.5125,147.625 33.7156,147.5469 33.9344,147.5469 C34.4031,147.5469 34.7938,147.9375 34.7938,148.3906 C34.7938,148.7813 34.4656,149.2344 33.8875,149.6406 C33.1375,150.1875 31.9813,150.4844 30.7625,150.4844 C27.8719,150.4844 25.7625,148.5938 25.7625,146.0156 L25.7625,144.8906 C25.7625,142.1719 27.7625,140.0938 30.3875,140.0938 C31.2625,140.0938 31.8563,140.2344 32.7938,140.6719 Z "/><text fill="#000000" font-family="sans-serif" font-size="12" lengthAdjust="spacingAndGlyphs" textLength="82" x="46.55" y="149.1543">Authorization</text><line style="stroke: #A80036; stroke-width: 1.5;" x1="7" x2="140" y1="161" y2="161"/><line style="stroke: #A80036; stroke-width: 1.5;" x1="7" x2="140" y1="169" y2="169"/><ellipse cx="17" cy="180" fill="#84BE84" rx="3" ry="3" style="stroke: #038048; stroke-width: 1.0;"/><text fill="#000000" font-family="sans-serif" font-size="11" lengthAdjust="spacingAndGlyphs" textLength="100" x="26" y="183.2104">provider: string ()</text><ellipse cx="17" cy="192.8047" fill="#84BE84" rx="3" ry="3" style="stroke: #038048; stroke-width: 1.0;"/><text fill="#000000" font-family="sans-serif" font-size="11" lengthAdjust="spacingAndGlyphs" textLength="70" x="26" y="196.0151">uid: string ()</text><ellipse cx="17" cy="205.6094" fill="#84BE84" rx="3" ry="3" style="stroke: #038048; stroke-width: 1.0;"/><text fill="#000000" font-family="sans-serif" font-size="11" lengthAdjust="spacingAndGlyphs" textLength="98" x="26" y="208.8198">username: any ()</text><ellipse cx="17" cy="218.4141" fill="#84BE84" rx="3" ry="3" style="stroke: #038048; stroke-width: 1.0;"/><text fill="#000000" font-family="sans-serif" font-size="11" lengthAdjust="spacingAndGlyphs" textLength="96" x="26" y="221.6245">password: any ()</text><ellipse cx="17" cy="231.2188" fill="#84BE84" rx="3" ry="3" style="stroke: #038048; stroke-width: 1.0;"/><text fill="#000000" font-family="sans-serif" font-size="11" lengthAdjust="spacingAndGlyphs" textLength="82" x="26" y="234.4292">user_id: any ()</text><ellipse cx="17" cy="244.0234" fill="#84BE84" rx="3" ry="3" style="stroke: #038048; stroke-width: 1.0;"/><text fill="#000000" font-family="sans-serif" font-size="11" lengthAdjust="spacingAndGlyphs" textLength="106" x="26" y="247.2339">created_at: Date ()</text><ellipse cx="17" cy="256.8281" fill="#84BE84" rx="3" ry="3" style="stroke: #038048; stroke-width: 1.0;"/><text fill="#000000" font-family="sans-serif" font-size="11" lengthAdjust="spacingAndGlyphs" textLength="109" x="26" y="260.0386">updated_at: Date ()</text><ellipse cx="17" cy="269.6328" fill="#84BE84" rx="3" ry="3" style="stroke: #038048; stroke-width: 1.0;"/><text fill="#000000" font-family="sans-serif" font-size="11" lengthAdjust="spacingAndGlyphs" textLength="89" x="26" y="272.8433">profile: string ()</text><!--MD5=[7e20e022571e30ec1001cf6eabd7f3e2]
class Model--><rect fill="#FEFECE" filter="url(#fhjme5tkt30xw)" height="48" id="Model" style="stroke: #A80036; stroke-width: 1.5;" width="69" x="217" y="8"/><ellipse cx="232" cy="24" fill="#ADD1B2" rx="11" ry="11" style="stroke: #A80036; stroke-width: 1.0;"/><path d="M234.3438,19.6719 L234.5156,19.75 C234.7344,19.4375 234.9375,19.3438 235.2344,19.3438 C235.5313,19.3438 235.8125,19.4844 235.9688,19.75 C236.0625,19.9063 236.0781,20.0313 236.0781,20.4688 L236.0781,21.8906 C236.0781,22.3125 236.0469,22.5 235.9375,22.6563 C235.7656,22.875 235.5,23.0156 235.2344,23.0156 C235.0156,23.0156 234.7813,22.9063 234.6406,22.7656 C234.5,22.6406 234.4688,22.5156 234.4063,22.1094 C234.3125,21.7031 234.1406,21.4844 233.6563,21.2031 C233.1875,20.9531 232.5781,20.7969 232,20.7969 C230.2656,20.7969 229.0156,22.1094 229.0156,23.8906 L229.0156,24.9844 C229.0156,26.6875 230.3125,27.7813 232.3594,27.7813 C233.125,27.7813 233.8125,27.6563 234.2344,27.3906 C234.4219,27.2969 234.4219,27.2969 234.875,26.8125 C235.0625,26.625 235.2656,26.5469 235.4844,26.5469 C235.9531,26.5469 236.3438,26.9375 236.3438,27.3906 C236.3438,27.7813 236.0156,28.2344 235.4375,28.6406 C234.6875,29.1875 233.5313,29.4844 232.3125,29.4844 C229.4219,29.4844 227.3125,27.5938 227.3125,25.0156 L227.3125,23.8906 C227.3125,21.1719 229.3125,19.0938 231.9375,19.0938 C232.8125,19.0938 233.4063,19.2344 234.3438,19.6719 Z "/><text fill="#000000" font-family="sans-serif" font-size="12" lengthAdjust="spacingAndGlyphs" textLength="37" x="246" y="28.1543">Model</text><line style="stroke: #A80036; stroke-width: 1.5;" x1="218" x2="285" y1="40" y2="40"/><line style="stroke: #A80036; stroke-width: 1.5;" x1="218" x2="285" y1="48" y2="48"/><!--MD5=[c8ade887ea07c48e5f47fd5cb4c8e83d]
class OauthApp--><rect fill="#FEFECE" filter="url(#fhjme5tkt30xw)" height="176.0469" id="OauthApp" style="stroke: #A80036; stroke-width: 1.5;" width="151" x="176" y="116"/><ellipse cx="216.65" cy="132" fill="#ADD1B2" rx="11" ry="11" style="stroke: #A80036; stroke-width: 1.0;"/><path d="M218.9938,127.6719 L219.1656,127.75 C219.3844,127.4375 219.5875,127.3438 219.8844,127.3438 C220.1813,127.3438 220.4625,127.4844 220.6188,127.75 C220.7125,127.9063 220.7281,128.0313 220.7281,128.4688 L220.7281,129.8906 C220.7281,130.3125 220.6969,130.5 220.5875,130.6563 C220.4156,130.875 220.15,131.0156 219.8844,131.0156 C219.6656,131.0156 219.4313,130.9063 219.2906,130.7656 C219.15,130.6406 219.1188,130.5156 219.0563,130.1094 C218.9625,129.7031 218.7906,129.4844 218.3063,129.2031 C217.8375,128.9531 217.2281,128.7969 216.65,128.7969 C214.9156,128.7969 213.6656,130.1094 213.6656,131.8906 L213.6656,132.9844 C213.6656,134.6875 214.9625,135.7813 217.0094,135.7813 C217.775,135.7813 218.4625,135.6563 218.8844,135.3906 C219.0719,135.2969 219.0719,135.2969 219.525,134.8125 C219.7125,134.625 219.9156,134.5469 220.1344,134.5469 C220.6031,134.5469 220.9938,134.9375 220.9938,135.3906 C220.9938,135.7813 220.6656,136.2344 220.0875,136.6406 C219.3375,137.1875 218.1813,137.4844 216.9625,137.4844 C214.0719,137.4844 211.9625,135.5938 211.9625,133.0156 L211.9625,131.8906 C211.9625,129.1719 213.9625,127.0938 216.5875,127.0938 C217.4625,127.0938 218.0563,127.2344 218.9938,127.6719 Z "/><text fill="#000000" font-family="sans-serif" font-size="12" lengthAdjust="spacingAndGlyphs" textLength="62" x="236.35" y="136.1543">OauthApp</text><line style="stroke: #A80036; stroke-width: 1.5;" x1="177" x2="326" y1="148" y2="148"/><line style="stroke: #A80036; stroke-width: 1.5;" x1="177" x2="326" y1="156" y2="156"/><ellipse cx="187" cy="167" fill="#84BE84" rx="3" ry="3" style="stroke: #038048; stroke-width: 1.0;"/><text fill="#000000" font-family="sans-serif" font-size="11" lengthAdjust="spacingAndGlyphs" textLength="74" x="196" y="170.2104">id: number ()</text><ellipse cx="187" cy="179.8047" fill="#84BE84" rx="3" ry="3" style="stroke: #038048; stroke-width: 1.0;"/><text fill="#000000" font-family="sans-serif" font-size="11" lengthAdjust="spacingAndGlyphs" textLength="120" x="196" y="183.0151">redirectUris: string ()</text><ellipse cx="187" cy="192.6094" fill="#84BE84" rx="3" ry="3" style="stroke: #038048; stroke-width: 1.0;"/><text fill="#000000" font-family="sans-serif" font-size="11" lengthAdjust="spacingAndGlyphs" textLength="90" x="196" y="195.8198">grants: string ()</text><ellipse cx="187" cy="205.4141" fill="#84BE84" rx="3" ry="3" style="stroke: #038048; stroke-width: 1.0;"/><text fill="#000000" font-family="sans-serif" font-size="11" lengthAdjust="spacingAndGlyphs" textLength="85" x="196" y="208.6245">name: string ()</text><ellipse cx="187" cy="218.2188" fill="#84BE84" rx="3" ry="3" style="stroke: #038048; stroke-width: 1.0;"/><text fill="#000000" font-family="sans-serif" font-size="11" lengthAdjust="spacingAndGlyphs" textLength="103" x="196" y="221.4292">description: any ()</text><ellipse cx="187" cy="231.0234" fill="#84BE84" rx="3" ry="3" style="stroke: #038048; stroke-width: 1.0;"/><text fill="#000000" font-family="sans-serif" font-size="11" lengthAdjust="spacingAndGlyphs" textLength="100" x="196" y="234.2339">created_at: any ()</text><ellipse cx="187" cy="243.8281" fill="#84BE84" rx="3" ry="3" style="stroke: #038048; stroke-width: 1.0;"/><text fill="#000000" font-family="sans-serif" font-size="11" lengthAdjust="spacingAndGlyphs" textLength="103" x="196" y="247.0386">updated_at: any ()</text><ellipse cx="187" cy="256.6328" fill="#84BE84" rx="3" ry="3" style="stroke: #038048; stroke-width: 1.0;"/><text fill="#000000" font-family="sans-serif" font-size="11" lengthAdjust="spacingAndGlyphs" textLength="93" x="196" y="259.8433">approved: any ()</text><ellipse cx="187" cy="269.4375" fill="#84BE84" rx="3" ry="3" style="stroke: #038048; stroke-width: 1.0;"/><text fill="#000000" font-family="sans-serif" font-size="11" lengthAdjust="spacingAndGlyphs" textLength="99" x="196" y="272.6479">client_id: string ()</text><ellipse cx="187" cy="282.2422" fill="#84BE84" rx="3" ry="3" style="stroke: #038048; stroke-width: 1.0;"/><text fill="#000000" font-family="sans-serif" font-size="11" lengthAdjust="spacingAndGlyphs" textLength="125" x="196" y="285.4526">client_secret: string ()</text><!--MD5=[3fd616f346a44cd59a91eb10b19e157c]
class User--><rect fill="#FEFECE" filter="url(#fhjme5tkt30xw)" height="99.2188" id="User" style="stroke: #A80036; stroke-width: 1.5;" width="212" x="362.5" y="154.5"/><ellipse cx="449.75" cy="170.5" fill="#ADD1B2" rx="11" ry="11" style="stroke: #A80036; stroke-width: 1.0;"/><path d="M452.0938,166.1719 L452.2656,166.25 C452.4844,165.9375 452.6875,165.8438 452.9844,165.8438 C453.2813,165.8438 453.5625,165.9844 453.7188,166.25 C453.8125,166.4063 453.8281,166.5313 453.8281,166.9688 L453.8281,168.3906 C453.8281,168.8125 453.7969,169 453.6875,169.1563 C453.5156,169.375 453.25,169.5156 452.9844,169.5156 C452.7656,169.5156 452.5313,169.4063 452.3906,169.2656 C452.25,169.1406 452.2188,169.0156 452.1563,168.6094 C452.0625,168.2031 451.8906,167.9844 451.4063,167.7031 C450.9375,167.4531 450.3281,167.2969 449.75,167.2969 C448.0156,167.2969 446.7656,168.6094 446.7656,170.3906 L446.7656,171.4844 C446.7656,173.1875 448.0625,174.2813 450.1094,174.2813 C450.875,174.2813 451.5625,174.1563 451.9844,173.8906 C452.1719,173.7969 452.1719,173.7969 452.625,173.3125 C452.8125,173.125 453.0156,173.0469 453.2344,173.0469 C453.7031,173.0469 454.0938,173.4375 454.0938,173.8906 C454.0938,174.2813 453.7656,174.7344 453.1875,175.1406 C452.4375,175.6875 451.2813,175.9844 450.0625,175.9844 C447.1719,175.9844 445.0625,174.0938 445.0625,171.5156 L445.0625,170.3906 C445.0625,167.6719 447.0625,165.5938 449.6875,165.5938 C450.5625,165.5938 451.1563,165.7344 452.0938,166.1719 Z "/><text fill="#000000" font-family="sans-serif" font-size="12" lengthAdjust="spacingAndGlyphs" textLength="29" x="470.25" y="174.6543">User</text><line style="stroke: #A80036; stroke-width: 1.5;" x1="363.5" x2="573.5" y1="186.5" y2="186.5"/><line style="stroke: #A80036; stroke-width: 1.5;" x1="363.5" x2="573.5" y1="194.5" y2="194.5"/><ellipse cx="373.5" cy="205.5" fill="#84BE84" rx="3" ry="3" style="stroke: #038048; stroke-width: 1.0;"/><text fill="#000000" font-family="sans-serif" font-size="11" lengthAdjust="spacingAndGlyphs" textLength="74" x="382.5" y="208.7104">id: number ()</text><ellipse cx="373.5" cy="218.3047" fill="#84BE84" rx="3" ry="3" style="stroke: #038048; stroke-width: 1.0;"/><text fill="#000000" font-family="sans-serif" font-size="11" lengthAdjust="spacingAndGlyphs" textLength="186" x="382.5" y="221.5151">display_name: string (显示的名称)</text><ellipse cx="373.5" cy="231.1094" fill="#84BE84" rx="3" ry="3" style="stroke: #038048; stroke-width: 1.0;"/><text fill="#000000" font-family="sans-serif" font-size="11" lengthAdjust="spacingAndGlyphs" textLength="106" x="382.5" y="234.3198">created_at: Date ()</text><ellipse cx="373.5" cy="243.9141" fill="#84BE84" rx="3" ry="3" style="stroke: #038048; stroke-width: 1.0;"/><text fill="#000000" font-family="sans-serif" font-size="11" lengthAdjust="spacingAndGlyphs" textLength="109" x="382.5" y="247.1245">updated_at: Date ()</text><!--MD5=[1263436fdf223bb497c431b367b94fd9]
reverse link Model to Authorization--><path d="M209.398,69.485 C193.257,83.755 174.809,100.411 158.5,116 C152.852,121.399 147.061,127.054 141.287,132.779 " fill="none" id="Model&lt;-Authorization" style="stroke: #A80036; stroke-width: 1.0;"/><polygon fill="none" points="204.956,64.07,224.605,56.139,214.191,74.593,204.956,64.07" style="stroke: #A80036; stroke-width: 1.0;"/><!--MD5=[e63e0f4e37f5f937ed4e213bd2c06cab]
reverse link Model to OauthApp--><path d="M251.5,76.706 C251.5,88.771 251.5,102.301 251.5,115.904 " fill="none" id="Model&lt;-OauthApp" style="stroke: #A80036; stroke-width: 1.0;"/><polygon fill="none" points="244.5,76.281,251.5,56.281,258.5,76.281,244.5,76.281" style="stroke: #A80036; stroke-width: 1.0;"/><!--MD5=[2e60b85283eec68fb985af438b76834e]
reverse link Model to User--><path d="M297.135,68.751 C328.822,93.575 371.429,126.953 406.23,154.217 " fill="none" id="Model&lt;-User" style="stroke: #A80036; stroke-width: 1.0;"/><polygon fill="none" points="292.645,74.126,281.218,56.281,301.279,63.105,292.645,74.126" style="stroke: #A80036; stroke-width: 1.0;"/><!--MD5=[4b7df1a1cfd01a1614f444b5acc127bb]
@startuml
class Authorization extends Model {
    +provider: string ()
    +uid: string ()
    +username: any ()
    +password: any ()
    +user_id: any ()
    +created_at: Date ()
    +updated_at: Date ()
    +profile: string ()
}
class OauthApp extends Model {
    +id: number ()
    +redirectUris: string ()
    +grants: string ()
    +name: string ()
    +description: any ()
    +created_at: any ()
    +updated_at: any ()
    +approved: any ()
    +client_id: string ()
    +client_secret: string ()
}
class User extends Model {
    +id: number ()
    +display_name: string (显示的名称)
    +created_at: Date ()
    +updated_at: Date ()
}
@enduml

PlantUML version 1.2019.12(Sun Nov 03 10:24:54 UTC 2019)
(GPL source distribution)
Java Runtime: Java(TM) SE Runtime Environment
JVM: Java HotSpot(TM) 64-Bit Server VM
Java Version: 1.7.0_25-b15
Operating System: Linux
Default Encoding: UTF-8
Language: en
Country: US
--></g></svg>