<?xml version="1.0" encoding="UTF-8" standalone="no"?><svg xmlns="http://www.w3.org/2000/svg" xmlns:xlink="http://www.w3.org/1999/xlink" contentScriptType="application/ecmascript" contentStyleType="text/css" height="303px" preserveAspectRatio="none" style="width:494px;height:303px;" version="1.1" viewBox="0 0 494 303" width="494px" zoomAndPan="magnify"><defs><filter height="300%" id="fpc17e0ksrfht" width="300%" x="-1" y="-1"><feGaussianBlur result="blurOut" stdDeviation="2.0"/><feColorMatrix in="blurOut" result="blurOut2" type="matrix" values="0 0 0 0 0 0 0 0 0 0 0 0 0 0 0 0 0 0 .4 0"/><feOffset dx="4.0" dy="4.0" in="blurOut2" result="blurOut3"/><feBlend in="SourceGraphic" in2="blurOut3" mode="normal"/></filter></defs><g><!--MD5=[16baea6be49bb9991e615d76903392b3]
class Authorization--><rect fill="#FEFECE" filter="url(#fpc17e0ksrfht)" height="150.4375" id="Authorization" style="stroke: #A80036; stroke-width: 1.5;" width="123" x="6" y="129"/><ellipse cx="25.05" cy="145" fill="#ADD1B2" rx="11" ry="11" style="stroke: #A80036; stroke-width: 1.0;"/><path d="M27.3938,140.6719 L27.5656,140.75 C27.7844,140.4375 27.9875,140.3438 28.2844,140.3438 C28.5813,140.3438 28.8625,140.4844 29.0188,140.75 C29.1125,140.9063 29.1281,141.0313 29.1281,141.4688 L29.1281,142.8906 C29.1281,143.3125 29.0969,143.5 28.9875,143.6563 C28.8156,143.875 28.55,144.0156 28.2844,144.0156 C28.0656,144.0156 27.8313,143.9063 27.6906,143.7656 C27.55,143.6406 27.5188,143.5156 27.4563,143.1094 C27.3625,142.7031 27.1906,142.4844 26.7063,142.2031 C26.2375,141.9531 25.6281,141.7969 25.05,141.7969 C23.3156,141.7969 22.0656,143.1094 22.0656,144.8906 L22.0656,145.9844 C22.0656,147.6875 23.3625,148.7813 25.4094,148.7813 C26.175,148.7813 26.8625,148.6563 27.2844,148.3906 C27.4719,148.2969 27.4719,148.2969 27.925,147.8125 C28.1125,147.625 28.3156,147.5469 28.5344,147.5469 C29.0031,147.5469 29.3938,147.9375 29.3938,148.3906 C29.3938,148.7813 29.0656,149.2344 28.4875,149.6406 C27.7375,150.1875 26.5813,150.4844 25.3625,150.4844 C22.4719,150.4844 20.3625,148.5938 20.3625,146.0156 L20.3625,144.8906 C20.3625,142.1719 22.3625,140.0938 24.9875,140.0938 C25.8625,140.0938 26.4563,140.2344 27.3938,140.6719 Z "/><text fill="#000000" font-family="sans-serif" font-size="12" lengthAdjust="spacingAndGlyphs" textLength="82" x="39.95" y="149.1543">Authorization</text><line style="stroke: #A80036; stroke-width: 1.5;" x1="7" x2="128" y1="161" y2="161"/><ellipse cx="17" cy="172" fill="none" rx="3" ry="3" style="stroke: #038048; stroke-width: 1.0;"/><text fill="#000000" font-family="sans-serif" font-size="11" lengthAdjust="spacingAndGlyphs" textLength="88" x="26" y="175.2104">provider: string</text><ellipse cx="17" cy="184.8047" fill="none" rx="3" ry="3" style="stroke: #038048; stroke-width: 1.0;"/><text fill="#000000" font-family="sans-serif" font-size="11" lengthAdjust="spacingAndGlyphs" textLength="58" x="26" y="188.0151">uid: string</text><ellipse cx="17" cy="197.6094" fill="none" rx="3" ry="3" style="stroke: #038048; stroke-width: 1.0;"/><text fill="#000000" font-family="sans-serif" font-size="11" lengthAdjust="spacingAndGlyphs" textLength="86" x="26" y="200.8198">username: any</text><ellipse cx="17" cy="210.4141" fill="none" rx="3" ry="3" style="stroke: #038048; stroke-width: 1.0;"/><text fill="#000000" font-family="sans-serif" font-size="11" lengthAdjust="spacingAndGlyphs" textLength="84" x="26" y="213.6245">password: any</text><ellipse cx="17" cy="223.2188" fill="none" rx="3" ry="3" style="stroke: #038048; stroke-width: 1.0;"/><text fill="#000000" font-family="sans-serif" font-size="11" lengthAdjust="spacingAndGlyphs" textLength="70" x="26" y="226.4292">user_id: any</text><ellipse cx="17" cy="236.0234" fill="none" rx="3" ry="3" style="stroke: #038048; stroke-width: 1.0;"/><text fill="#000000" font-family="sans-serif" font-size="11" lengthAdjust="spacingAndGlyphs" textLength="94" x="26" y="239.2339">created_at: Date</text><ellipse cx="17" cy="248.8281" fill="none" rx="3" ry="3" style="stroke: #038048; stroke-width: 1.0;"/><text fill="#000000" font-family="sans-serif" font-size="11" lengthAdjust="spacingAndGlyphs" textLength="97" x="26" y="252.0386">updated_at: Date</text><ellipse cx="17" cy="261.6328" fill="none" rx="3" ry="3" style="stroke: #038048; stroke-width: 1.0;"/><text fill="#000000" font-family="sans-serif" font-size="11" lengthAdjust="spacingAndGlyphs" textLength="77" x="26" y="264.8433">profile: string</text><line style="stroke: #A80036; stroke-width: 1.5;" x1="7" x2="128" y1="271.4375" y2="271.4375"/><!--MD5=[7e20e022571e30ec1001cf6eabd7f3e2]
class Model--><rect fill="#FEFECE" filter="url(#fpc17e0ksrfht)" height="48" id="Model" style="stroke: #A80036; stroke-width: 1.5;" width="69" x="199" y="8"/><ellipse cx="214" cy="24" fill="#ADD1B2" rx="11" ry="11" style="stroke: #A80036; stroke-width: 1.0;"/><path d="M216.3438,19.6719 L216.5156,19.75 C216.7344,19.4375 216.9375,19.3438 217.2344,19.3438 C217.5313,19.3438 217.8125,19.4844 217.9688,19.75 C218.0625,19.9063 218.0781,20.0313 218.0781,20.4688 L218.0781,21.8906 C218.0781,22.3125 218.0469,22.5 217.9375,22.6563 C217.7656,22.875 217.5,23.0156 217.2344,23.0156 C217.0156,23.0156 216.7813,22.9063 216.6406,22.7656 C216.5,22.6406 216.4688,22.5156 216.4063,22.1094 C216.3125,21.7031 216.1406,21.4844 215.6563,21.2031 C215.1875,20.9531 214.5781,20.7969 214,20.7969 C212.2656,20.7969 211.0156,22.1094 211.0156,23.8906 L211.0156,24.9844 C211.0156,26.6875 212.3125,27.7813 214.3594,27.7813 C215.125,27.7813 215.8125,27.6563 216.2344,27.3906 C216.4219,27.2969 216.4219,27.2969 216.875,26.8125 C217.0625,26.625 217.2656,26.5469 217.4844,26.5469 C217.9531,26.5469 218.3438,26.9375 218.3438,27.3906 C218.3438,27.7813 218.0156,28.2344 217.4375,28.6406 C216.6875,29.1875 215.5313,29.4844 214.3125,29.4844 C211.4219,29.4844 209.3125,27.5938 209.3125,25.0156 L209.3125,23.8906 C209.3125,21.1719 211.3125,19.0938 213.9375,19.0938 C214.8125,19.0938 215.4063,19.2344 216.3438,19.6719 Z "/><text fill="#000000" font-family="sans-serif" font-size="12" lengthAdjust="spacingAndGlyphs" textLength="37" x="228" y="28.1543">Model</text><line style="stroke: #A80036; stroke-width: 1.5;" x1="200" x2="267" y1="40" y2="40"/><line style="stroke: #A80036; stroke-width: 1.5;" x1="200" x2="267" y1="48" y2="48"/><!--MD5=[c8ade887ea07c48e5f47fd5cb4c8e83d]
class OauthApp--><rect fill="#FEFECE" filter="url(#fpc17e0ksrfht)" height="176.0469" id="OauthApp" style="stroke: #A80036; stroke-width: 1.5;" width="139" x="164" y="116"/><ellipse cx="199.25" cy="132" fill="#ADD1B2" rx="11" ry="11" style="stroke: #A80036; stroke-width: 1.0;"/><path d="M201.5938,127.6719 L201.7656,127.75 C201.9844,127.4375 202.1875,127.3438 202.4844,127.3438 C202.7813,127.3438 203.0625,127.4844 203.2188,127.75 C203.3125,127.9063 203.3281,128.0313 203.3281,128.4688 L203.3281,129.8906 C203.3281,130.3125 203.2969,130.5 203.1875,130.6563 C203.0156,130.875 202.75,131.0156 202.4844,131.0156 C202.2656,131.0156 202.0313,130.9063 201.8906,130.7656 C201.75,130.6406 201.7188,130.5156 201.6563,130.1094 C201.5625,129.7031 201.3906,129.4844 200.9063,129.2031 C200.4375,128.9531 199.8281,128.7969 199.25,128.7969 C197.5156,128.7969 196.2656,130.1094 196.2656,131.8906 L196.2656,132.9844 C196.2656,134.6875 197.5625,135.7813 199.6094,135.7813 C200.375,135.7813 201.0625,135.6563 201.4844,135.3906 C201.6719,135.2969 201.6719,135.2969 202.125,134.8125 C202.3125,134.625 202.5156,134.5469 202.7344,134.5469 C203.2031,134.5469 203.5938,134.9375 203.5938,135.3906 C203.5938,135.7813 203.2656,136.2344 202.6875,136.6406 C201.9375,137.1875 200.7813,137.4844 199.5625,137.4844 C196.6719,137.4844 194.5625,135.5938 194.5625,133.0156 L194.5625,131.8906 C194.5625,129.1719 196.5625,127.0938 199.1875,127.0938 C200.0625,127.0938 200.6563,127.2344 201.5938,127.6719 Z "/><text fill="#000000" font-family="sans-serif" font-size="12" lengthAdjust="spacingAndGlyphs" textLength="62" x="217.75" y="136.1543">OauthApp</text><line style="stroke: #A80036; stroke-width: 1.5;" x1="165" x2="302" y1="148" y2="148"/><ellipse cx="175" cy="159" fill="none" rx="3" ry="3" style="stroke: #038048; stroke-width: 1.0;"/><text fill="#000000" font-family="sans-serif" font-size="11" lengthAdjust="spacingAndGlyphs" textLength="62" x="184" y="162.2104">id: number</text><ellipse cx="175" cy="171.8047" fill="none" rx="3" ry="3" style="stroke: #038048; stroke-width: 1.0;"/><text fill="#000000" font-family="sans-serif" font-size="11" lengthAdjust="spacingAndGlyphs" textLength="108" x="184" y="175.0151">redirectUris: string</text><ellipse cx="175" cy="184.6094" fill="none" rx="3" ry="3" style="stroke: #038048; stroke-width: 1.0;"/><text fill="#000000" font-family="sans-serif" font-size="11" lengthAdjust="spacingAndGlyphs" textLength="78" x="184" y="187.8198">grants: string</text><ellipse cx="175" cy="197.4141" fill="none" rx="3" ry="3" style="stroke: #038048; stroke-width: 1.0;"/><text fill="#000000" font-family="sans-serif" font-size="11" lengthAdjust="spacingAndGlyphs" textLength="73" x="184" y="200.6245">name: string</text><ellipse cx="175" cy="210.2188" fill="none" rx="3" ry="3" style="stroke: #038048; stroke-width: 1.0;"/><text fill="#000000" font-family="sans-serif" font-size="11" lengthAdjust="spacingAndGlyphs" textLength="91" x="184" y="213.4292">description: any</text><ellipse cx="175" cy="223.0234" fill="none" rx="3" ry="3" style="stroke: #038048; stroke-width: 1.0;"/><text fill="#000000" font-family="sans-serif" font-size="11" lengthAdjust="spacingAndGlyphs" textLength="88" x="184" y="226.2339">created_at: any</text><ellipse cx="175" cy="235.8281" fill="none" rx="3" ry="3" style="stroke: #038048; stroke-width: 1.0;"/><text fill="#000000" font-family="sans-serif" font-size="11" lengthAdjust="spacingAndGlyphs" textLength="91" x="184" y="239.0386">updated_at: any</text><ellipse cx="175" cy="248.6328" fill="none" rx="3" ry="3" style="stroke: #038048; stroke-width: 1.0;"/><text fill="#000000" font-family="sans-serif" font-size="11" lengthAdjust="spacingAndGlyphs" textLength="81" x="184" y="251.8433">approved: any</text><ellipse cx="175" cy="261.4375" fill="none" rx="3" ry="3" style="stroke: #038048; stroke-width: 1.0;"/><text fill="#000000" font-family="sans-serif" font-size="11" lengthAdjust="spacingAndGlyphs" textLength="87" x="184" y="264.6479">client_id: string</text><ellipse cx="175" cy="274.2422" fill="none" rx="3" ry="3" style="stroke: #038048; stroke-width: 1.0;"/><text fill="#000000" font-family="sans-serif" font-size="11" lengthAdjust="spacingAndGlyphs" textLength="113" x="184" y="277.4526">client_secret: string</text><line style="stroke: #A80036; stroke-width: 1.5;" x1="165" x2="302" y1="284.0469" y2="284.0469"/><!--MD5=[3fd616f346a44cd59a91eb10b19e157c]
class User--><rect fill="#FEFECE" filter="url(#fpc17e0ksrfht)" height="99.2188" id="User" style="stroke: #A80036; stroke-width: 1.5;" width="145" x="338" y="154.5"/><ellipse cx="391.75" cy="170.5" fill="#ADD1B2" rx="11" ry="11" style="stroke: #A80036; stroke-width: 1.0;"/><path d="M394.0938,166.1719 L394.2656,166.25 C394.4844,165.9375 394.6875,165.8438 394.9844,165.8438 C395.2813,165.8438 395.5625,165.9844 395.7188,166.25 C395.8125,166.4063 395.8281,166.5313 395.8281,166.9688 L395.8281,168.3906 C395.8281,168.8125 395.7969,169 395.6875,169.1563 C395.5156,169.375 395.25,169.5156 394.9844,169.5156 C394.7656,169.5156 394.5313,169.4063 394.3906,169.2656 C394.25,169.1406 394.2188,169.0156 394.1563,168.6094 C394.0625,168.2031 393.8906,167.9844 393.4063,167.7031 C392.9375,167.4531 392.3281,167.2969 391.75,167.2969 C390.0156,167.2969 388.7656,168.6094 388.7656,170.3906 L388.7656,171.4844 C388.7656,173.1875 390.0625,174.2813 392.1094,174.2813 C392.875,174.2813 393.5625,174.1563 393.9844,173.8906 C394.1719,173.7969 394.1719,173.7969 394.625,173.3125 C394.8125,173.125 395.0156,173.0469 395.2344,173.0469 C395.7031,173.0469 396.0938,173.4375 396.0938,173.8906 C396.0938,174.2813 395.7656,174.7344 395.1875,175.1406 C394.4375,175.6875 393.2813,175.9844 392.0625,175.9844 C389.1719,175.9844 387.0625,174.0938 387.0625,171.5156 L387.0625,170.3906 C387.0625,167.6719 389.0625,165.5938 391.6875,165.5938 C392.5625,165.5938 393.1563,165.7344 394.0938,166.1719 Z "/><text fill="#000000" font-family="sans-serif" font-size="12" lengthAdjust="spacingAndGlyphs" textLength="29" x="412.25" y="174.6543">User</text><line style="stroke: #A80036; stroke-width: 1.5;" x1="339" x2="482" y1="186.5" y2="186.5"/><ellipse cx="349" cy="197.5" fill="none" rx="3" ry="3" style="stroke: #038048; stroke-width: 1.0;"/><text fill="#000000" font-family="sans-serif" font-size="11" lengthAdjust="spacingAndGlyphs" textLength="62" x="358" y="200.7104">id: number</text><ellipse cx="349" cy="210.3047" fill="none" rx="3" ry="3" style="stroke: #038048; stroke-width: 1.0;"/><text fill="#000000" font-family="sans-serif" font-size="11" lengthAdjust="spacingAndGlyphs" textLength="119" x="358" y="213.5151">display_name: string</text><ellipse cx="349" cy="223.1094" fill="none" rx="3" ry="3" style="stroke: #038048; stroke-width: 1.0;"/><text fill="#000000" font-family="sans-serif" font-size="11" lengthAdjust="spacingAndGlyphs" textLength="94" x="358" y="226.3198">created_at: Date</text><ellipse cx="349" cy="235.9141" fill="none" rx="3" ry="3" style="stroke: #038048; stroke-width: 1.0;"/><text fill="#000000" font-family="sans-serif" font-size="11" lengthAdjust="spacingAndGlyphs" textLength="97" x="358" y="239.1245">updated_at: Date</text><line style="stroke: #A80036; stroke-width: 1.5;" x1="339" x2="482" y1="245.7188" y2="245.7188"/><!--MD5=[1263436fdf223bb497c431b367b94fd9]
reverse link Model to Authorization--><path d="M193.58,69.944 C178.586,84.116 161.539,100.586 146.5,116 C140.801,121.841 134.954,127.981 129.145,134.184 " fill="none" id="Model&lt;-Authorization" style="stroke: #A80036; stroke-width: 1.0;"/><polygon fill="none" points="188.914,64.723,208.291,56.149,198.49,74.936,188.914,64.723" style="stroke: #A80036; stroke-width: 1.0;"/><!--MD5=[e63e0f4e37f5f937ed4e213bd2c06cab]
reverse link Model to OauthApp--><path d="M233.5,76.706 C233.5,88.771 233.5,102.301 233.5,115.904 " fill="none" id="Model&lt;-OauthApp" style="stroke: #A80036; stroke-width: 1.0;"/><polygon fill="none" points="226.5,76.281,233.5,56.281,240.5,76.281,226.5,76.281" style="stroke: #A80036; stroke-width: 1.0;"/><!--MD5=[2e60b85283eec68fb985af438b76834e]
reverse link Model to User--><path d="M272.57,70.17 C287.578,84.474 304.855,100.976 320.5,116 C333.353,128.343 347.206,141.705 360.1,154.167 " fill="none" id="Model&lt;-User" style="stroke: #A80036; stroke-width: 1.0;"/><polygon fill="none" points="267.571,75.075,257.917,56.212,277.226,64.937,267.571,75.075" style="stroke: #A80036; stroke-width: 1.0;"/><!--MD5=[69d197c3457bd137a3b00533c8c001e4]
@startuml
class Authorization extends Model {
    +provider: string
    +uid: string
    +username: any
    +password: any
    +user_id: any
    +created_at: Date
    +updated_at: Date
    +profile: string
}
class OauthApp extends Model {
    +id: number
    +redirectUris: string
    +grants: string
    +name: string
    +description: any
    +created_at: any
    +updated_at: any
    +approved: any
    +client_id: string
    +client_secret: string
}
class User extends Model {
    +id: number
    +display_name: string
    +created_at: Date
    +updated_at: Date
}
@enduml

PlantUML version 1.2019.12(Sun Nov 03 10:24:54 UTC 2019)
(GPL source distribution)
Java Runtime: Java(TM) SE Runtime Environment
JVM: Java HotSpot(TM) 64-Bit Server VM
Java Version: 1.7.0_25-b15
Operating System: Linux
Default Encoding: UTF-8
Language: en
Country: US
--></g></svg>